grf.mot																		
version=1																		
nRows=14
nColumns=31
inDegrees=yes																		
endheader																		
time	ground_force_vx	ground_force_vy	ground_force_vz	ground_force_px	ground_force_py	ground_force_pz	1_ground_force_vx	1_ground_force_vy	1_ground_force_vz	1_ground_force_px	1_ground_force_py	1_ground_force_pz	ground_torque_x	ground_torque_y	ground_torque_z	1_ground_torque_x	1_ground_torque_y	1_ground_torque_z	apo_force_vx	apo_force_vy	apo_force_vz	apo_force_px	apo_force_py	apo_force_pz	1_apo_force_vx	1_apo_force_vy	1_apo_force_vz	1_apo_force_px	1_apo_force_py	1_apo_force_pz	
1.24460000000000	0.00000000000000	0.00000000000000	0.00000000000000	0.00000000000000	0.00000000000000	0.00000000000000	-106.18600000000001	932.13800000000003	89.63760000000001	-0.00024116900000	0.00000000000000	-0.10931700000000	0.00000000000000	0.00000000000000	0.00000000000000	0.00000000000000	8.65080000000000	0.00000000000000	-20.00000000000000	-3.03630000000000	0.00000000000000	0.00000000000000	-0.35000000000000	0.00000000000000	17.58100000000000	12.36100000000000	0.00000000000000	0.00000000000000	-0.35000000000000	0.00000000000000	
1.24960000000000	0.00000000000000	0.00000000000000	0.00000000000000	0.00000000000000	0.00000000000000	0.00000000000000	-96.75130000000000	914.47199999999998	87.84269999999999	-0.00896424000000	0.00000000000000	-0.11010500000000	0.00000000000000	0.00000000000000	0.00000000000000	0.00000000000000	8.24062000000000	0.00000000000000	-20.36600000000000	-3.54250000000000	0.00000000000000	0.00000000000000	-0.35000000000000	0.00000000000000	17.91100000000000	12.29100000000000	0.00000000000000	0.00000000000000	-0.35000000000000	0.00000000000000	
1.25460000000000	0.00000000000000	0.00000000000000	0.00000000000000	0.00000000000000	0.00000000000000	0.00000000000000	-87.45370000000000	895.24500000000000	85.86010000000000	-0.01699150000000	0.00000000000000	-0.11085100000000	0.00000000000000	0.00000000000000	0.00000000000000	0.00000000000000	7.82132000000000	0.00000000000000	-20.78700000000000	-4.07850000000000	0.00000000000000	0.00000000000000	-0.35000000000000	0.00000000000000	18.33300000000000	12.27000000000000	0.00000000000000	0.00000000000000	-0.35000000000000	0.00000000000000	
1.25960000000000	0.00000000000000	0.00000000000000	0.00000000000000	0.00000000000000	0.00000000000000	0.00000000000000	-78.38640000000000	874.68299999999999	83.73830000000000	-0.02432460000000	0.00000000000000	-0.11153800000000	0.00000000000000	0.00000000000000	0.00000000000000	0.00000000000000	7.40080000000000	0.00000000000000	-21.25400000000000	-4.64620000000000	0.00000000000000	0.00000000000000	-0.35000000000000	0.00000000000000	18.84100000000000	12.29200000000000	0.00000000000000	0.00000000000000	-0.35000000000000	0.00000000000000	
1.26460000000000	0.00000000000000	0.00000000000000	0.00000000000000	0.00000000000000	0.00000000000000	0.00000000000000	-69.63070000000000	853.01900000000001	81.52190000000000	-0.03098860000000	0.00000000000000	-0.11215100000000	0.00000000000000	0.00000000000000	0.00000000000000	0.00000000000000	6.98618000000000	0.00000000000000	-21.75100000000000	-5.24450000000000	0.00000000000000	0.00000000000000	-0.35000000000000	0.00000000000000	19.42100000000000	12.34200000000000	0.00000000000000	0.00000000000000	-0.35000000000000	0.00000000000000	
1.26960000000000	0.00000000000000	0.00000000000000	0.00000000000000	0.00000000000000	0.00000000000000	0.00000000000000	-61.25550000000000	830.48400000000004	79.25109999999999	-0.03702900000000	0.00000000000000	-0.11267900000000	0.00000000000000	0.00000000000000	0.00000000000000	0.00000000000000	6.58367000000000	0.00000000000000	-22.25200000000000	-5.86840000000000	0.00000000000000	0.00000000000000	-0.35000000000000	0.00000000000000	20.04900000000000	12.40400000000000	0.00000000000000	0.00000000000000	-0.35000000000000	0.00000000000000	
1.27460000000000	0.00000000000000	0.00000000000000	0.00000000000000	0.00000000000000	0.00000000000000	0.00000000000000	-53.31700000000000	807.30799999999999	76.96040000000001	-0.04251010000000	0.00000000000000	-0.11311600000000	0.00000000000000	0.00000000000000	0.00000000000000	0.00000000000000	6.19849000000000	0.00000000000000	-22.72200000000000	-6.50770000000000	0.00000000000000	0.00000000000000	-0.35000000000000	0.00000000000000	20.69000000000000	12.45500000000000	0.00000000000000	0.00000000000000	-0.35000000000000	0.00000000000000	
1.27960000000000	0.00000000000000	0.00000000000000	0.00000000000000	0.00000000000000	0.00000000000000	0.00000000000000	-45.85890000000000	783.71500000000003	74.67860000000000	-0.04751150000000	0.00000000000000	-0.11345900000000	0.00000000000000	0.00000000000000	0.00000000000000	0.00000000000000	5.83481000000000	0.00000000000000	-23.11700000000000	-7.14680000000000	0.00000000000000	0.00000000000000	-0.35000000000000	0.00000000000000	21.30300000000000	12.46900000000000	0.00000000000000	0.00000000000000	-0.35000000000000	0.00000000000000	
1.28460000000000	0.00000000000000	0.00000000000000	0.00000000000000	0.00000000000000	0.00000000000000	0.00000000000000	-38.91270000000000	759.92200000000003	72.42829999999999	-0.05212510000000	0.00000000000000	-0.11371000000000	0.00000000000000	0.00000000000000	0.00000000000000	0.00000000000000	5.49575000000000	0.00000000000000	-23.39200000000000	-7.76490000000000	0.00000000000000	0.00000000000000	-0.35000000000000	0.00000000000000	21.84000000000000	12.42100000000000	0.00000000000000	0.00000000000000	-0.35000000000000	0.00000000000000	
1.28960000000000	0.00000000000000	0.00000000000000	0.00000000000000	0.00000000000000	0.00000000000000	0.00000000000000	-32.49830000000000	736.13599999999997	70.22590000000000	-0.05645140000000	0.00000000000000	-0.11387100000000	0.00000000000000	0.00000000000000	0.00000000000000	0.00000000000000	5.18334000000000	0.00000000000000	-23.50100000000000	-8.33700000000000	0.00000000000000	0.00000000000000	-0.35000000000000	0.00000000000000	22.24900000000000	12.28800000000000	0.00000000000000	0.00000000000000	-0.35000000000000	0.00000000000000	
1.29460000000000	0.00000000000000	0.00000000000000	0.00000000000000	0.00000000000000	0.00000000000000	0.00000000000000	-26.62500000000000	712.54999999999995	68.08230000000000	-0.06059590000000	0.00000000000000	-0.11395200000000	0.00000000000000	0.00000000000000	0.00000000000000	0.00000000000000	4.89863000000000	0.00000000000000	-23.40100000000000	-8.83520000000000	0.00000000000000	0.00000000000000	-0.35000000000000	0.00000000000000	22.48200000000000	12.04800000000000	0.00000000000000	0.00000000000000	-0.35000000000000	0.00000000000000	
1.29960000000000	0.00000000000000	0.00000000000000	0.00000000000000	0.00000000000000	0.00000000000000	0.00000000000000	-21.29200000000000	689.34299999999996	66.00260000000000	-0.06466550000000	0.00000000000000	-0.11396200000000	0.00000000000000	0.00000000000000	0.00000000000000	0.00000000000000	4.64170000000000	0.00000000000000	-23.05900000000000	-9.23080000000000	0.00000000000000	0.00000000000000	-0.35000000000000	0.00000000000000	22.49500000000000	11.68800000000000	0.00000000000000	0.00000000000000	-0.35000000000000	0.00000000000000	
1.30460000000000	0.00000000000000	0.00000000000000	0.00000000000000	0.00000000000000	0.00000000000000	0.00000000000000	-16.49030000000000	666.67800000000000	63.98740000000000	-0.06876470000000	0.00000000000000	-0.11391300000000	0.00000000000000	0.00000000000000	0.00000000000000	0.00000000000000	4.41179000000000	0.00000000000000	-22.45500000000000	-9.49810000000000	0.00000000000000	0.00000000000000	-0.35000000000000	0.00000000000000	22.25500000000000	11.20100000000000	0.00000000000000	0.00000000000000	-0.35000000000000	0.00000000000000	
1.30960000000000	0.00000000000000	0.00000000000000	0.00000000000000	0.00000000000000	0.00000000000000	0.00000000000000	-12.20280000000000	644.70399999999995	62.03300000000000	-0.07299240000000	0.00000000000000	-0.11381900000000	0.00000000000000	0.00000000000000	0.00000000000000	0.00000000000000	4.20738000000000	0.00000000000000	-21.58800000000000	-9.61810000000000	0.00000000000000	0.00000000000000	-0.35000000000000	0.00000000000000	21.74700000000000	10.59300000000000	0.00000000000000	0.00000000000000	-0.35000000000000	0.00000000000000	
